<svg width="163" height="163" viewBox="0 0 163 163" fill="none" xmlns="http://www.w3.org/2000/svg">
<path d="M66.0001 2.19998C34.4001 9.26665 10.4001 31.9333 2.66672 62.3333C0.13339 72.4666 0.13339 90.8667 2.66672 101C9.73339 128.6 31.8667 151.933 58.6667 159.8C69.7334 163.133 93.2001 163.133 104 159.8C116.533 156.067 127.2 149.8 137.6 139.933C153.467 124.867 162.267 104.333 162.4 82.3333C162.533 68.7333 160.4 59.8 154 46.3333C147.733 33.4 138.267 22.4666 126.267 14.6C115.2 7.13331 109.867 4.99998 97.3334 2.33331C85.8667 0.066646 76.2667 -0.0666873 66.0001 2.19998ZM116.8 35C136.8 40.4666 148.667 53.8 148.667 71.1333C148.667 82.3333 144.533 91 134.933 100.733C116.133 119.533 83.0667 129.933 56.4001 125.267C28.9334 120.467 14.0001 107 14.0001 87C14.0001 51.4 70.8001 22.6 116.8 35Z" fill="#DF0234"/>
<path d="M79.0668 35.1333C53.3334 38.4666 27.3334 55.1333 18.6668 73.9333C8.00011 96.8666 24.9334 118.6 57.0668 123.133C99.3334 129.267 144.8 103.533 147.067 72.2C147.733 63.4 143.467 53.6666 136.4 47.6666C129.6 41.9333 116.133 36.3333 105.6 35C94.5334 33.5333 91.3334 33.5333 79.0668 35.1333ZM83.2001 45.8C87.8668 47.4 90.0001 50.4666 90.0001 55.5333C90.0001 60.4666 85.8668 63.9333 78.8001 65C72.5334 65.9333 71.4668 67.6666 73.4668 72.7333C74.0001 74.3333 74.9334 74.4666 78.1334 73.2666C80.9334 72.2 82.4001 72.2 83.4668 73.2666C84.6668 74.4666 85.6001 74.4666 87.4668 73.2666C89.2001 72.2 90.6668 72.2 93.3334 73.4C97.4668 75.2666 98.8001 78.3333 96.6668 81C94.2668 83.9333 91.4668 83.4 89.7334 79.6666C87.4668 74.6 85.7334 77.2666 86.1334 85.5333L86.5334 93L81.0668 93.4L75.4668 93.8L76.2668 86.4666C77.2001 76.8666 75.7334 75 67.2001 75C61.0668 75 58.9334 73.5333 62.0001 71.6666C62.8001 71.2666 63.3334 65.8 63.3334 59.6666C63.3334 53.5333 62.8001 48.0666 62.0001 47.6666C61.3334 47.2666 60.6668 46.3333 60.6668 45.5333C60.6668 43.8 78.0001 44.0666 83.2001 45.8ZM113.333 53.6666C116.267 57 115.067 60.3333 110.8 60.3333C108.533 60.3333 107.333 59.5333 107.067 57.6666C106.133 51.6666 104 55.5333 104 63V71H98.5334H93.0668L93.7334 63.5333C94.1334 58.0666 93.8668 55.6666 92.5334 54.8666C89.3334 52.7333 93.6001 51.2666 102.667 51.2666C109.333 51.2666 111.6 51.8 113.333 53.6666ZM69.6001 87.2666C70.0001 96.0666 68.6668 98.8666 64.1334 99.1333C62.1334 99.2666 62.5334 99.5333 65.4668 100.467C70.2668 101.8 71.8668 104.733 70.0001 108.467C68.5334 111 62.5334 113.267 60.9334 111.8C60.5334 111.267 61.4668 110.6 63.0668 110.067C64.6668 109.667 66.0001 108.867 66.0001 108.2C66.0001 107.533 64.4001 107.667 62.5334 108.333C53.4668 111.8 46.1334 107.667 50.4001 101.267C52.0001 98.8666 52.0001 97.9333 50.1334 94.7333C48.2668 91.4 48.2668 90.6 50.0001 87.4C51.6001 84.6 53.4668 83.5333 58.0001 82.7333C61.2001 82.2 64.8001 80.8666 65.8668 79.6666C68.6668 76.8666 69.2001 78.0666 69.6001 87.2666ZM110.133 87.8C116 93.1333 111.733 105.667 103.867 105.667C100.8 105.667 100.533 106.067 100.933 109.933C101.333 114.2 101.2 114.333 96.1334 114.333H90.9334L91.2001 102.6C91.3334 95.1333 90.9334 90.0666 89.8668 88.8666C88.6668 87.4 88.9334 86.8666 91.0668 86.0666C95.8668 84.2 107.467 85.2666 110.133 87.8Z" fill="#DF0234"/>
<path d="M72.6667 55.1333C72.6667 62.8667 72.8001 63.1333 75.7334 62.2C79.4667 61 80.6667 59.2667 80.6667 54.7333C80.6667 51.5333 76.6667 47 73.7334 47C73.0667 47 72.6667 50.6 72.6667 55.1333Z" fill="#DF0234"/>
<path d="M57.3334 89.9333C59.0667 98.3333 62.8001 98.7333 61.3334 90.4667C60.6667 87.5333 59.6001 85.6667 58.4001 85.6667C56.9334 85.6667 56.6667 86.6 57.3334 89.9333Z" fill="#DF0234"/>
<path d="M56.4 101.267C57.2 101.533 58.8 101.533 59.7334 101.267C60.5334 100.867 59.8667 100.6 58 100.6C56.1334 100.6 55.4667 100.867 56.4 101.267Z" fill="#DF0234"/>
<path d="M100 93.8C101.2 100.733 102.667 103.933 103.733 102.067C105.067 99.9333 102.8 89.2666 100.8 88.6C99.4667 88.2 99.2 89.2666 100 93.8Z" fill="#DF0234"/>
</svg>
